<svg width="30" height="34" viewBox="0 0 30 34" fill="none" xmlns="http://www.w3.org/2000/svg">
<path d="M3.33333 33.6825C2.41667 33.6825 1.63194 33.3561 0.979167 32.7033C0.326389 32.0505 0 31.2658 0 30.3491V7.01579C0 6.09912 0.326389 5.3144 0.979167 4.66162C1.63194 4.00884 2.41667 3.68245 3.33333 3.68245H5V0.349121H8.33333V3.68245H21.6667V0.349121H25V3.68245H26.6667C27.5833 3.68245 28.3681 4.00884 29.0208 4.66162C29.6736 5.3144 30 6.09912 30 7.01579V30.3491C30 31.2658 29.6736 32.0505 29.0208 32.7033C28.3681 33.3561 27.5833 33.6825 26.6667 33.6825H3.33333ZM3.33333 30.3491H26.6667V13.6825H3.33333V30.3491ZM3.33333 10.3491H26.6667V7.01579H3.33333V10.3491Z" fill="white"/>
</svg>
