<svg width="14" height="14" viewBox="0 0 14 14" fill="none" xmlns="http://www.w3.org/2000/svg">
<path d="M4.66699 13.6666C4.30033 13.6666 3.98644 13.536 3.72533 13.2749C3.46421 13.0138 3.33366 12.6999 3.33366 12.3333C3.33366 11.9666 3.46421 11.6527 3.72533 11.3916C3.98644 11.1305 4.30033 10.9999 4.66699 10.9999C5.03366 10.9999 5.34755 11.1305 5.60866 11.3916C5.86977 11.6527 6.00033 11.9666 6.00033 12.3333C6.00033 12.6999 5.86977 13.0138 5.60866 13.2749C5.34755 13.536 5.03366 13.6666 4.66699 13.6666ZM11.3337 13.6666C10.967 13.6666 10.6531 13.536 10.392 13.2749C10.1309 13.0138 10.0003 12.6999 10.0003 12.3333C10.0003 11.9666 10.1309 11.6527 10.392 11.3916C10.6531 11.1305 10.967 10.9999 11.3337 10.9999C11.7003 10.9999 12.0142 11.1305 12.2753 11.3916C12.5364 11.6527 12.667 11.9666 12.667 12.3333C12.667 12.6999 12.5364 13.0138 12.2753 13.2749C12.0142 13.536 11.7003 13.6666 11.3337 13.6666ZM4.10033 2.99992L5.70033 6.33325H10.367L12.2003 2.99992H4.10033ZM3.46699 1.66659H13.3003C13.5559 1.66659 13.7503 1.78047 13.8837 2.00825C14.017 2.23603 14.0225 2.46659 13.9003 2.69992L11.5337 6.96659C11.4114 7.18881 11.2475 7.36103 11.042 7.48325C10.8364 7.60547 10.6114 7.66659 10.367 7.66659H5.40033L4.66699 8.99992H12.667V10.3333H4.66699C4.16699 10.3333 3.78921 10.1138 3.53366 9.67492C3.2781 9.23603 3.26699 8.79992 3.50033 8.36659L4.40033 6.73325L2.00033 1.66659H0.666992V0.333252H2.83366L3.46699 1.66659Z" fill="white"/>
</svg>
