<svg width="80" height="81" viewBox="0 0 80 81" fill="none" xmlns="http://www.w3.org/2000/svg">
<rect y="0.137451" width="80" height="80" rx="40" fill="#19B397"/>
<path d="M30 62.1375C28.9 62.1375 27.9583 61.7458 27.175 60.9625C26.3917 60.1791 26 59.2375 26 58.1375V22.1375C26 21.0375 26.3917 20.0958 27.175 19.3125C27.9583 18.5291 28.9 18.1375 30 18.1375H50C51.1 18.1375 52.0417 18.5291 52.825 19.3125C53.6083 20.0958 54 21.0375 54 22.1375V58.1375C54 59.2375 53.6083 60.1791 52.825 60.9625C52.0417 61.7458 51.1 62.1375 50 62.1375H30ZM30 56.1375V58.1375H50V56.1375H30ZM30 52.1375H50V28.1375H30V52.1375ZM30 24.1375H50V22.1375H30V24.1375Z" fill="white"/>
</svg>
