<svg width="80" height="80" viewBox="0 0 80 80" fill="none" xmlns="http://www.w3.org/2000/svg">
<rect width="80" height="80" rx="40" fill="#19B397"/>
<path d="M20 30V20H30V24H24V30H20ZM20 60V50H24V56H30V60H20ZM50 60V56H56V50H60V60H50ZM56 30V24H50V20H60V30H56ZM51 51H54V54H51V51ZM51 45H54V48H51V45ZM48 48H51V51H48V48ZM45 51H48V54H45V51ZM42 48H45V51H42V48ZM48 42H51V45H48V42ZM45 45H48V48H45V45ZM42 42H45V45H42V42ZM54 26V38H42V26H54ZM38 42V54H26V42H38ZM38 26V38H26V26H38ZM35 51V45H29V51H35ZM35 35V29H29V35H35ZM51 35V29H45V35H51Z" fill="white"/>
</svg>
