<svg width="28" height="34" viewBox="0 0 28 34" fill="none" xmlns="http://www.w3.org/2000/svg">
<path d="M14.0001 17.0158C14.9167 17.0158 15.7015 16.6894 16.3542 16.0366C17.007 15.3838 17.3334 14.5991 17.3334 13.6825C17.3334 12.7658 17.007 11.9811 16.3542 11.3283C15.7015 10.6755 14.9167 10.3491 14.0001 10.3491C13.0834 10.3491 12.2987 10.6755 11.6459 11.3283C10.9931 11.9811 10.6667 12.7658 10.6667 13.6825C10.6667 14.5991 10.9931 15.3838 11.6459 16.0366C12.2987 16.6894 13.0834 17.0158 14.0001 17.0158ZM14.0001 29.2658C17.389 26.1547 19.9029 23.3283 21.5417 20.7866C23.1806 18.245 24.0001 15.988 24.0001 14.0158C24.0001 10.988 23.0348 8.50884 21.1042 6.57829C19.1737 4.64773 16.8056 3.68245 14.0001 3.68245C11.1945 3.68245 8.82647 4.64773 6.89591 6.57829C4.96536 8.50884 4.00008 10.988 4.00008 14.0158C4.00008 15.988 4.81953 18.245 6.45841 20.7866C8.0973 23.3283 10.6112 26.1547 14.0001 29.2658ZM14.0001 33.6825C9.52786 29.8769 6.18758 26.3422 3.97925 23.0783C1.77091 19.8144 0.666748 16.7936 0.666748 14.0158C0.666748 9.84912 2.00703 6.52968 4.68758 4.05745C7.36814 1.58523 10.4723 0.349121 14.0001 0.349121C17.5279 0.349121 20.632 1.58523 23.3126 4.05745C25.9931 6.52968 27.3334 9.84912 27.3334 14.0158C27.3334 16.7936 26.2292 19.8144 24.0209 23.0783C21.8126 26.3422 18.4723 29.8769 14.0001 33.6825Z" fill="white"/>
</svg>
