<svg width="80" height="81" viewBox="0 0 80 81" fill="none" xmlns="http://www.w3.org/2000/svg">
<rect y="0.137451" width="80" height="80" rx="40" fill="#19B397"/>
<path d="M28 60.1375C26.9 60.1375 25.9583 59.7458 25.175 58.9625C24.3917 58.1791 24 57.2375 24 56.1375V36.1375C24 35.0375 24.3917 34.0958 25.175 33.3125C25.9583 32.5291 26.9 32.1375 28 32.1375H30V28.1375C30 25.3708 30.975 23.0125 32.925 21.0625C34.875 19.1125 37.2333 18.1375 40 18.1375C42.7667 18.1375 45.125 19.1125 47.075 21.0625C49.025 23.0125 50 25.3708 50 28.1375V32.1375H52C53.1 32.1375 54.0417 32.5291 54.825 33.3125C55.6083 34.0958 56 35.0375 56 36.1375V56.1375C56 57.2375 55.6083 58.1791 54.825 58.9625C54.0417 59.7458 53.1 60.1375 52 60.1375H28ZM28 56.1375H52V36.1375H28V56.1375ZM40 50.1375C41.1 50.1375 42.0417 49.7458 42.825 48.9625C43.6083 48.1791 44 47.2375 44 46.1375C44 45.0375 43.6083 44.0958 42.825 43.3125C42.0417 42.5291 41.1 42.1375 40 42.1375C38.9 42.1375 37.9583 42.5291 37.175 43.3125C36.3917 44.0958 36 45.0375 36 46.1375C36 47.2375 36.3917 48.1791 37.175 48.9625C37.9583 49.7458 38.9 50.1375 40 50.1375ZM34 32.1375H46V28.1375C46 26.4708 45.4167 25.0541 44.25 23.8875C43.0833 22.7208 41.6667 22.1375 40 22.1375C38.3333 22.1375 36.9167 22.7208 35.75 23.8875C34.5833 25.0541 34 26.4708 34 28.1375V32.1375Z" fill="white"/>
</svg>
