<svg width="16" height="17" viewBox="0 0 16 17" fill="none" xmlns="http://www.w3.org/2000/svg">
<g clip-path="url(#clip0_404_5129)">
<path d="M3.99984 15.35C3.63317 15.35 3.31928 15.2195 3.05817 14.9583C2.79706 14.6972 2.6665 14.3833 2.6665 14.0167V6.68335C2.6665 6.31668 2.79706 6.00279 3.05817 5.74168C3.31928 5.48057 3.63317 5.35002 3.99984 5.35002H5.99984V6.68335H3.99984V14.0167H11.9998V6.68335H9.99984V5.35002H11.9998C12.3665 5.35002 12.6804 5.48057 12.9415 5.74168C13.2026 6.00279 13.3332 6.31668 13.3332 6.68335V14.0167C13.3332 14.3833 13.2026 14.6972 12.9415 14.9583C12.6804 15.2195 12.3665 15.35 11.9998 15.35H3.99984ZM7.33317 10.6833V3.23335L6.2665 4.30002L5.33317 3.35002L7.99984 0.68335L10.6665 3.35002L9.73317 4.30002L8.6665 3.23335V10.6833H7.33317Z" fill="white"/>
</g>
<defs>
<clipPath id="clip0_404_5129">
<rect width="16" height="16" fill="white" transform="translate(0 0.0166016)"/>
</clipPath>
</defs>
</svg>
