<svg width="128" height="33" viewBox="0 0 128 33" fill="none" xmlns="http://www.w3.org/2000/svg">
<path d="M24.2884 22.5833H11.4709C4.86918 22.5833 0 18.5516 0 11.7391C0 5.34817 5.01971 0.89502 11.293 0.89502C17.5663 0.89502 22.5832 5.37828 22.5832 11.7391C22.5832 14.728 21.2695 17.6566 18.371 18.9403V19.0005H24.2884V22.5833ZM11.293 18.2834C12.1468 18.2791 12.9914 18.1062 13.7782 17.7747C14.565 17.4431 15.2786 16.9594 15.878 16.3514C16.4774 15.7433 16.9509 15.0229 17.2711 14.2314C17.5913 13.4399 17.7521 12.5929 17.7442 11.7391C17.7619 10.8806 17.608 10.0272 17.2917 9.22881C16.9754 8.43047 16.5029 7.70329 15.902 7.08986C15.3011 6.47643 14.5838 5.98909 13.7921 5.65639C13.0004 5.32369 12.1503 5.15232 11.2916 5.15232C10.4329 5.15232 9.5828 5.32369 8.79115 5.65639C7.99949 5.98909 7.28219 6.47643 6.68126 7.08986C6.08034 7.70329 5.60787 8.43047 5.29154 9.22881C4.97522 10.0272 4.82139 10.8806 4.83907 11.7391C4.83113 12.5932 4.99199 13.4403 5.3124 14.232C5.63281 15.0237 6.10647 15.7443 6.70617 16.3524C7.30587 16.9604 8.01979 17.4441 8.80694 17.7755C9.59408 18.1068 10.4389 18.2795 11.293 18.2834Z" fill="#50E3C1"/>
<path d="M26.5874 1.43408H34.7739C39.1066 1.43408 42.7496 2.9285 42.7496 7.85789C42.7496 10.8139 41.1676 13.1157 38.1787 13.6522L43.557 22.5831H37.9707L33.5504 14.1312H31.2486V22.5831H26.5956L26.5874 1.43408ZM31.2404 10.1926H33.9774C35.6798 10.1926 37.8913 10.1324 37.8913 7.83326C37.8913 5.71206 35.9754 5.36993 34.2757 5.36993H31.2486L31.2404 10.1926Z" fill="#50E3C1"/>
<path d="M49.5049 5.55629H43.4697V1.43433H60.1985V5.55629H54.1633V22.5834H49.5104L49.5049 5.55629Z" fill="white"/>
<path d="M64.2926 0.89502C64.8068 0.89502 65.3095 1.04752 65.7371 1.33323C66.1647 1.61894 66.498 2.02503 66.6948 2.50015C66.8916 2.97527 66.9431 3.49808 66.8428 4.00247C66.7425 4.50685 66.4948 4.97016 66.1312 5.3338C65.7675 5.69744 65.3042 5.94509 64.7998 6.04542C64.2954 6.14574 63.7726 6.09425 63.2975 5.89745C62.8224 5.70065 62.4163 5.36738 62.1306 4.93978C61.8449 4.51218 61.6924 4.00947 61.6924 3.4952C61.6931 2.80581 61.9673 2.14487 62.4548 1.65739C62.9422 1.16992 63.6032 0.895744 64.2926 0.89502ZM62.0509 8.06604H66.5315V22.5723H62.0509V8.06604Z" fill="white"/>
<path d="M79.5876 12.7574C79.3291 12.4159 78.9948 12.1393 78.6109 11.9493C78.2271 11.7593 77.8044 11.6611 77.3761 11.6626C75.1372 11.6626 73.7933 13.1543 73.7933 15.3357C73.7933 17.5171 75.1372 19.0115 77.3761 19.0115C77.803 19.0055 78.2232 18.9041 78.6059 18.7146C78.9885 18.5252 79.324 18.2526 79.5876 17.9167L82.5436 21.0233C81.1422 22.4575 79.0785 22.9638 77.3761 22.9638C72.8956 22.9638 69.3101 19.9777 69.3101 15.3466C69.3101 10.7156 72.8956 7.72949 77.3761 7.72949C79.0785 7.72949 81.1422 8.23858 82.5436 9.67005L79.5876 12.7574Z" fill="white"/>
<path d="M84.1582 0H88.6387V13.8028L93.5982 8.05508H99.0942L93.3327 14.6075L99.2447 22.5832H93.6064L88.7071 15.2343H88.6469V22.5832H84.1582V0Z" fill="white"/>
<path d="M114.512 20.0762C113.078 21.8963 110.718 22.9418 108.386 22.9418C103.906 22.9418 100.32 19.9557 100.32 15.3247C100.32 10.6936 103.906 7.70752 108.386 7.70752C112.569 7.70752 115.199 10.6936 115.199 15.3247V16.7288H104.798C105.154 18.4312 106.44 19.537 108.173 19.537C109.637 19.537 110.622 18.7898 111.37 17.7743L114.512 20.0762ZM110.718 13.6852C110.725 13.3239 110.659 12.965 110.524 12.6299C110.388 12.2948 110.187 11.9904 109.932 11.7349C109.676 11.4794 109.372 11.2781 109.037 11.1429C108.701 11.0077 108.343 10.9415 107.981 10.9482C106.011 10.9482 104.935 12.292 104.817 13.6852H110.718Z" fill="white"/>
<path d="M127.819 11.6516H123.862V16.4906C123.862 18.0425 124.042 19.1784 125.983 19.1784C126.462 19.1784 127.417 19.1182 127.806 18.7596V22.4957C126.793 22.8232 125.732 22.9741 124.669 22.9418C121.683 22.9418 119.381 21.7184 119.381 18.5626V11.6516H116.513V8.06604H119.381V3.76343H123.862V8.06604H127.819V11.6516Z" fill="white"/>
<path d="M113.13 29.029C113.046 28.9173 112.937 28.8268 112.812 28.7646C112.687 28.7023 112.549 28.6701 112.41 28.6704C112.093 28.6704 111.788 28.7964 111.564 29.0207C111.34 29.245 111.214 29.5493 111.214 29.8665C111.214 30.1837 111.34 30.4879 111.564 30.7123C111.788 30.9366 112.093 31.0626 112.41 31.0626C112.549 31.0601 112.686 31.0264 112.811 30.9638C112.935 30.9013 113.044 30.8116 113.13 30.7013L114.093 31.714C113.636 32.1369 113.032 32.3639 112.41 32.3462C110.951 32.3462 109.782 31.3746 109.782 29.8665C109.782 28.3584 110.951 27.384 112.41 27.384C113.032 27.3664 113.636 27.5934 114.093 28.0163L113.13 29.029Z" fill="#50E3C1"/>
<path d="M114.638 24.877H116.097V32.2286H114.638V24.877Z" fill="#50E3C1"/>
<path d="M121.699 32.2286H120.298V31.5881H120.279C120.139 31.8278 119.936 32.025 119.692 32.1585C119.449 32.292 119.174 32.3569 118.896 32.3463C117.418 32.3463 117.147 31.3746 117.147 30.1101V27.5017H118.606V29.8172C118.606 30.3646 118.606 31.0626 119.364 31.0626C120.123 31.0626 120.24 30.4687 120.24 29.8556V27.5017H121.699V32.2286Z" fill="#50E3C1"/>
<path d="M122.865 24.877H124.324V28.0081H124.343C124.674 27.551 125.238 27.3841 125.843 27.3841C127.184 27.3841 128 28.5911 128 29.9049C128 31.3336 127.078 32.3463 125.676 32.3463C125.394 32.3431 125.117 32.2748 124.866 32.1466C124.614 32.0184 124.396 31.8338 124.228 31.6073H124.206V32.2286H122.865V24.877ZM125.375 31.0626C125.613 31.0681 125.847 31.0026 126.047 30.8745C126.247 30.7464 126.405 30.5616 126.499 30.3436C126.594 30.1255 126.622 29.8842 126.579 29.6504C126.536 29.4167 126.424 29.201 126.258 29.031C126.092 28.8609 125.879 28.7443 125.646 28.6959C125.413 28.6474 125.171 28.6695 124.951 28.7591C124.731 28.8488 124.543 29.0021 124.41 29.1993C124.277 29.3965 124.206 29.6288 124.206 29.8666C124.191 30.025 124.211 30.1849 124.264 30.335C124.317 30.4852 124.402 30.6219 124.513 30.7358C124.624 30.8497 124.759 30.9379 124.908 30.9944C125.057 31.0508 125.216 31.0741 125.375 31.0626Z" fill="#50E3C1"/>
</svg>
