<svg width="40" height="41" viewBox="0 0 40 41" fill="none" xmlns="http://www.w3.org/2000/svg">
<rect y="0.137451" width="40" height="40" rx="4" fill="url(#paint0_linear_340_6586)"/>
<path d="M33.3337 20.1375C33.3337 12.7775 27.3603 6.80414 20.0003 6.80414C12.6403 6.80414 6.66699 12.7775 6.66699 20.1375C6.66699 26.5908 11.2537 31.9641 17.3337 33.2041V24.1375H14.667V20.1375H17.3337V16.8041C17.3337 14.2308 19.427 12.1375 22.0003 12.1375H25.3337V16.1375H22.667C21.9337 16.1375 21.3337 16.7375 21.3337 17.4708V20.1375H25.3337V24.1375H21.3337V33.4041C28.067 32.7375 33.3337 27.0575 33.3337 20.1375Z" fill="white"/>
<defs>
<linearGradient id="paint0_linear_340_6586" x1="0" y1="20.1375" x2="40" y2="20.1375" gradientUnits="userSpaceOnUse">
<stop stop-color="#C422E7"/>
<stop offset="1" stop-color="#12B9EE"/>
</linearGradient>
</defs>
</svg>
