<svg width="40" height="41" viewBox="0 0 40 41" fill="none" xmlns="http://www.w3.org/2000/svg">
<rect y="0.137451" width="40" height="40" rx="4" fill="url(#paint0_linear_340_6589)"/>
<path d="M21.3708 6.80414C22.8708 6.80814 23.6321 6.81614 24.2894 6.8348L24.5481 6.84414C24.8468 6.8548 25.1414 6.86814 25.4974 6.88414C26.9161 6.9508 27.8841 7.1748 28.7334 7.50414C29.6135 7.84281 30.3548 8.30147 31.0961 9.04147C31.7741 9.708 32.2987 10.5143 32.6335 11.4041C32.9628 12.2535 33.1868 13.2215 33.2535 14.6415C33.2695 14.9961 33.2828 15.2908 33.2935 15.5908L33.3015 15.8495C33.3215 16.5055 33.3295 17.2668 33.3321 18.7668L33.3335 19.7615V21.5081C33.3367 22.4807 33.3265 23.4532 33.3028 24.4255L33.2948 24.6841C33.2841 24.9841 33.2708 25.2788 33.2548 25.6335C33.1881 27.0535 32.9615 28.0201 32.6335 28.8708C32.2997 29.7612 31.7749 30.5676 31.0961 31.2335C30.4294 31.9112 29.6232 32.4358 28.7334 32.7708C27.8841 33.1001 26.9161 33.3241 25.4974 33.3908C25.1811 33.4057 24.8646 33.419 24.5481 33.4308L24.2894 33.4388C23.6321 33.4575 22.8708 33.4668 21.3708 33.4695L20.3761 33.4708H18.6308C17.6578 33.4742 16.6848 33.4639 15.7121 33.4401L15.4535 33.4321C15.1369 33.4202 14.8205 33.4064 14.5041 33.3908C13.0855 33.3241 12.1175 33.1001 11.2668 32.7708C10.377 32.4366 9.57107 31.9119 8.90545 31.2335C8.22685 30.5672 7.70175 29.7609 7.36678 28.8708C7.03745 28.0215 6.81345 27.0535 6.74678 25.6335C6.73193 25.3171 6.7186 25.0006 6.70678 24.6841L6.70012 24.4255C6.67555 23.4532 6.66444 22.4807 6.66678 21.5081V18.7668C6.66306 17.7943 6.67284 16.8217 6.69612 15.8495L6.70545 15.5908C6.71612 15.2908 6.72945 14.9961 6.74545 14.6415C6.81212 13.2215 7.03612 12.2548 7.36545 11.4041C7.70027 10.5133 8.22641 9.70684 8.90678 9.04147C9.57224 8.36344 10.3776 7.83879 11.2668 7.50414C12.1175 7.1748 13.0841 6.9508 14.5041 6.88414C14.8588 6.86814 15.1548 6.8548 15.4535 6.84414L15.7121 6.83614C16.6844 6.81245 17.6569 6.80223 18.6295 6.80547L21.3708 6.80414ZM20.0001 13.4708C18.232 13.4708 16.5363 14.1732 15.2861 15.4234C14.0358 16.6737 13.3335 18.3694 13.3335 20.1375C13.3335 21.9056 14.0358 23.6013 15.2861 24.8515C16.5363 26.1018 18.232 26.8041 20.0001 26.8041C21.7682 26.8041 23.4639 26.1018 24.7142 24.8515C25.9644 23.6013 26.6668 21.9056 26.6668 20.1375C26.6668 18.3694 25.9644 16.6737 24.7142 15.4234C23.4639 14.1732 21.7682 13.4708 20.0001 13.4708ZM20.0001 16.1375C20.5254 16.1374 21.0456 16.2408 21.5309 16.4417C22.0162 16.6426 22.4572 16.9372 22.8287 17.3086C23.2002 17.6799 23.4949 18.1209 23.696 18.6061C23.8971 19.0914 24.0007 19.6115 24.0008 20.1368C24.0009 20.6621 23.8975 21.1823 23.6966 21.6676C23.4956 22.1529 23.2011 22.5939 22.8297 22.9654C22.4583 23.3369 22.0174 23.6316 21.5321 23.8327C21.0469 24.0338 20.5267 24.1374 20.0015 24.1375C18.9406 24.1375 17.9232 23.716 17.173 22.9659C16.4229 22.2158 16.0015 21.1983 16.0015 20.1375C16.0015 19.0766 16.4229 18.0592 17.173 17.309C17.9232 16.5589 18.9406 16.1375 20.0015 16.1375M27.0014 11.4708C26.5594 11.4708 26.1355 11.6464 25.8229 11.959C25.5104 12.2715 25.3348 12.6954 25.3348 13.1375C25.3348 13.5795 25.5104 14.0034 25.8229 14.316C26.1355 14.6285 26.5594 14.8041 27.0014 14.8041C27.4435 14.8041 27.8674 14.6285 28.18 14.316C28.4925 14.0034 28.6681 13.5795 28.6681 13.1375C28.6681 12.6954 28.4925 12.2715 28.18 11.959C27.8674 11.6464 27.4435 11.4708 27.0014 11.4708Z" fill="white"/>
<defs>
<linearGradient id="paint0_linear_340_6589" x1="0" y1="20.1375" x2="40" y2="20.1375" gradientUnits="userSpaceOnUse">
<stop stop-color="#C422E7"/>
<stop offset="1" stop-color="#12B9EE"/>
</linearGradient>
</defs>
</svg>
