<svg width="40" height="41" viewBox="0 0 40 41" fill="none" xmlns="http://www.w3.org/2000/svg">
<rect y="0.137451" width="40" height="40" rx="4" fill="url(#paint0_linear_340_6592)"/>
<path d="M20.0003 6.80414C17.3632 6.80414 14.7854 7.58612 12.5927 9.05121C10.4001 10.5163 8.69111 12.5987 7.68194 15.035C6.67277 17.4714 6.40872 20.1523 6.92319 22.7387C7.43766 25.3251 8.70754 27.7009 10.5722 29.5656C12.4369 31.4303 14.8127 32.7001 17.3991 33.2146C19.9855 33.7291 22.6664 33.465 25.1028 32.4559C27.5391 31.4467 29.6215 29.7377 31.0866 27.5451C32.5517 25.3524 33.3337 22.7746 33.3337 20.1375C33.3301 16.6023 31.9242 13.213 29.4245 10.7133C26.9248 8.21356 23.5355 6.80767 20.0003 6.80414ZM27.919 17.0881V17.9495C27.919 18.0154 27.9058 18.0807 27.8802 18.1414C27.8546 18.2021 27.8171 18.2571 27.7698 18.3031C27.7226 18.3491 27.6666 18.3852 27.6052 18.4091C27.5438 18.4331 27.4782 18.4446 27.4123 18.4428C26.0046 18.343 24.6579 17.829 23.5417 16.9655V23.2695C23.5415 23.9672 23.4023 24.6579 23.1321 25.3012C22.862 25.9445 22.4664 26.5275 21.9683 27.0161C21.4658 27.517 20.8687 27.9129 20.2118 28.1807C19.5548 28.4485 18.8511 28.5829 18.1417 28.5761C16.7149 28.5736 15.3456 28.0139 14.3257 27.0161C13.6769 26.362 13.2095 25.5502 12.9697 24.6607C12.7298 23.7711 12.7257 22.8344 12.9577 21.9428C13.1697 21.0868 13.5977 20.3001 14.2017 19.6588C14.6521 19.1083 15.2199 18.6653 15.8635 18.3624C16.5071 18.0595 17.2103 17.9043 17.9217 17.9081H19.015V20.1788C19.0155 20.2448 19.0019 20.31 18.9752 20.3703C18.9484 20.4306 18.9091 20.4845 18.8599 20.5284C18.8107 20.5723 18.7527 20.6052 18.6898 20.625C18.6269 20.6447 18.5605 20.6508 18.495 20.6428C17.8602 20.4521 17.1761 20.5154 16.587 20.8192C15.998 21.1231 15.5499 21.6438 15.3372 22.2715C15.1245 22.8993 15.1639 23.5852 15.4471 24.1845C15.7302 24.7838 16.235 25.2497 16.855 25.4841C17.215 25.6908 17.6177 25.8121 18.031 25.8401C18.351 25.8535 18.671 25.8135 18.975 25.7175C19.4827 25.5466 19.9244 25.2214 20.2382 24.7873C20.5521 24.3532 20.7225 23.8318 20.7257 23.2961V11.8095C20.7255 11.7465 20.7377 11.6841 20.7617 11.6259C20.7857 11.5677 20.8209 11.5147 20.8654 11.4701C20.9099 11.4256 20.9627 11.3902 21.0208 11.366C21.079 11.3419 21.1414 11.3295 21.2043 11.3295H23.091C23.2137 11.3293 23.3317 11.3762 23.4208 11.4606C23.5099 11.545 23.5632 11.6603 23.5697 11.7828C23.6387 12.371 23.8256 12.9393 24.1193 13.4537C24.413 13.968 24.8074 14.4178 25.279 14.7761C25.9165 15.2547 26.6736 15.5481 27.467 15.6241C27.5858 15.6343 27.697 15.6872 27.7798 15.773C27.8627 15.8588 27.9117 15.9717 27.9177 16.0908L27.919 17.0881Z" fill="white"/>
<defs>
<linearGradient id="paint0_linear_340_6592" x1="0" y1="20.1375" x2="40" y2="20.1375" gradientUnits="userSpaceOnUse">
<stop stop-color="#C422E7"/>
<stop offset="1" stop-color="#12B9EE"/>
</linearGradient>
</defs>
</svg>
