<svg width="40" height="41" viewBox="0 0 40 41" fill="none" xmlns="http://www.w3.org/2000/svg">
<rect y="0.137451" width="40" height="40" rx="4" fill="url(#paint0_linear_340_6595)"/>
<path d="M17.3337 24.1375L24.2537 20.1375L17.3337 16.1375V24.1375ZM32.747 13.6975C32.9203 14.3241 33.0403 15.1641 33.1203 16.2308C33.2137 17.2975 33.2537 18.2175 33.2537 19.0175L33.3337 20.1375C33.3337 23.0575 33.1203 25.2041 32.747 26.5775C32.4137 27.7775 31.6403 28.5508 30.4403 28.8841C29.8137 29.0575 28.667 29.1775 26.907 29.2575C25.1737 29.3508 23.587 29.3908 22.1203 29.3908L20.0003 29.4708C14.4137 29.4708 10.9337 29.2575 9.56033 28.8841C8.36033 28.5508 7.58699 27.7775 7.25366 26.5775C7.08033 25.9508 6.96033 25.1108 6.88033 24.0441C6.78699 22.9775 6.74699 22.0575 6.74699 21.2575L6.66699 20.1375C6.66699 17.2175 6.88033 15.0708 7.25366 13.6975C7.58699 12.4975 8.36033 11.7241 9.56033 11.3908C10.187 11.2175 11.3337 11.0975 13.0937 11.0175C14.827 10.9241 16.4137 10.8841 17.8803 10.8841L20.0003 10.8041C25.587 10.8041 29.067 11.0175 30.4403 11.3908C31.6403 11.7241 32.4137 12.4975 32.747 13.6975Z" fill="white"/>
<defs>
<linearGradient id="paint0_linear_340_6595" x1="0" y1="20.1375" x2="40" y2="20.1375" gradientUnits="userSpaceOnUse">
<stop stop-color="#C422E7"/>
<stop offset="1" stop-color="#12B9EE"/>
</linearGradient>
</defs>
</svg>
