<svg width="120" height="40" viewBox="0 0 120 40" fill="none" xmlns="http://www.w3.org/2000/svg">
<path d="M110.451 0H7.5232C6.85089 0.00985778 6.18028 0.070042 5.51701 0.180045C4.85343 0.292854 4.21084 0.505321 3.61113 0.810202C3.00689 1.11416 2.45769 1.51644 1.98612 2.0005C1.50426 2.4715 1.10426 3.0191 0.802474 3.6209C0.498135 4.2195 0.285137 4.86005 0.170526 5.52138C0.058585 6.1824 0.00154947 6.8515 0 7.52188C0 7.83196 0 8.14203 0 8.44211V31.5679C0 31.878 0 32.178 0 32.4881C0.00154947 33.1585 0.058585 33.8276 0.170526 34.4886C0.283576 35.1535 0.496625 35.7976 0.802474 36.3991C1.10408 36.998 1.50417 37.5424 1.98612 38.0095C2.45847 38.49 3.00762 38.8889 3.61113 39.1898C4.21084 39.4947 4.85343 39.7071 5.51701 39.82C6.18028 39.93 6.85089 39.9901 7.5232 40H112.467C113.139 39.9901 113.81 39.93 114.473 39.82C115.139 39.7058 115.785 39.4934 116.389 39.1898C116.991 38.8862 117.54 38.4877 118.014 38.0095C118.978 37.059 119.611 35.8248 119.819 34.4886C119.93 33.8272 119.99 33.1585 120 32.4881C120 32.178 120 31.878 120 31.5679V8.44211C120 8.14203 120 7.83196 120 7.52188C119.99 6.85148 119.93 6.18277 119.819 5.52138C119.708 4.86052 119.499 4.21994 119.198 3.6209C118.575 2.41996 117.593 1.44139 116.389 0.820205C115.785 0.516617 115.139 0.304242 114.473 0.190047C113.81 0.0800445 113.139 0.0198603 112.467 0.0100025H110.461L110.451 0Z" fill="#A6A6A6"/>
<path d="M8.44613 39.1402H7.54335C6.91561 39.1469 6.28833 39.1035 5.66757 39.0102C5.08157 38.8971 4.51655 38.6947 3.9924 38.41C3.47812 38.1512 3.00765 37.8137 2.5981 37.4098C2.18794 37.0019 1.84892 36.5286 1.59501 36.0094C1.3264 35.4876 1.14031 34.9275 1.04331 34.349C0.944685 33.7302 0.891047 33.1051 0.882812 32.4785C0.882813 32.2685 0.882812 31.5683 0.882812 31.5683V8.44251C0.882812 8.44251 0.882812 7.75234 0.882812 7.55229C0.891047 6.92576 0.944685 6.30064 1.04331 5.68182C1.13513 5.097 1.31788 4.53005 1.58498 4.0014C1.84184 3.48398 2.18054 3.01116 2.58807 2.60105C3.00161 2.19737 3.47533 1.85996 3.9924 1.6008C4.5157 1.33296 5.07738 1.14739 5.65753 1.05066C6.28142 0.951841 6.91169 0.898353 7.54335 0.890625H112.457C113.082 0.899316 113.705 0.952801 114.323 1.05066C114.906 1.14884 115.47 1.33432 115.998 1.6008C117.034 2.13065 117.88 2.96984 118.415 4.0014C118.676 4.52201 118.859 5.07812 118.957 5.65181C119.059 6.27375 119.116 6.9022 119.127 7.53229V8.42251C119.127 8.8026 119.127 9.16269 119.127 9.52278V30.468C119.127 30.8381 119.127 31.1882 119.127 31.5483V32.4785C119.116 33.0987 119.059 33.7171 118.957 34.329C118.863 34.9102 118.681 35.4736 118.415 35.9994C118.154 36.5114 117.816 36.9803 117.412 37.3897C117.001 37.7957 116.526 38.1334 116.008 38.39C115.486 38.6831 114.92 38.8924 114.333 39.0102C113.713 39.1131 113.085 39.1666 112.457 39.1702H111.554H8.44613V39.1402Z" fill="black"/>
<path d="M24.8262 20.3059C24.836 19.4706 25.0583 18.6516 25.4724 17.9255C25.8864 17.1995 26.4787 16.5902 27.1935 16.1548C26.7389 15.5087 26.1397 14.977 25.4432 14.602C24.7468 14.227 23.9723 14.0189 23.1812 13.9943C21.506 13.8142 19.8709 14.9945 19.0083 14.9945C18.1456 14.9945 16.8115 13.9943 15.3871 13.9943C14.4668 14.0241 13.5699 14.2914 12.7841 14.77C11.9982 15.2486 11.3502 15.9221 10.9033 16.725C9.00745 20.1158 10.4118 25.007 12.2675 27.7477C13.2004 29.078 14.2737 30.5584 15.7081 30.5084C17.1425 30.4584 17.614 29.6182 19.2992 29.6182C20.9844 29.6182 21.4458 30.5084 22.9003 30.4684C24.3548 30.4284 25.3378 29.1381 26.2306 27.7977C26.9006 26.855 27.4153 25.8116 27.7553 24.707C26.8874 24.3414 26.1468 23.7291 25.6259 22.9463C25.105 22.1636 24.8269 21.2452 24.8262 20.3059Z" fill="#FBFBFB"/>
<path d="M22.0473 12.2135C22.8607 11.2392 23.2603 9.98654 23.1607 8.72266C21.9173 8.85647 20.769 9.44865 19.9408 10.3831C19.5379 10.8408 19.2296 11.3732 19.0334 11.9499C18.8371 12.5266 18.7569 13.1363 18.7973 13.7439C19.4197 13.75 20.0355 13.6155 20.5983 13.3505C21.1612 13.0854 21.6566 12.6967 22.0473 12.2135Z" fill="#FBFBFB"/>
<path d="M42.4119 27.1472H37.6673L36.5238 30.5081H34.5176L39.0114 18.085H41.1079L45.6018 30.5081H43.5956L42.4119 27.1472ZM38.1588 25.5968H41.9204L40.1048 20.1455H40.0547L38.1588 25.5968Z" fill="#FBFBFB"/>
<path d="M55.3103 26.0074C55.3103 28.8181 53.7956 30.6286 51.5186 30.6286C50.9374 30.6542 50.3608 30.5158 49.855 30.2291C49.3493 29.9425 48.935 29.5192 48.6598 29.0081V33.4893H46.7539V21.4863H48.5595V23.0066C48.8519 22.5029 49.276 22.088 49.7866 21.8061C50.2973 21.5242 50.8751 21.386 51.4584 21.4062C53.7956 21.3562 55.3103 23.1667 55.3103 26.0074ZM53.3944 26.0074C53.3944 24.1769 52.3913 23.0066 50.997 23.0066C49.6027 23.0066 48.6096 24.237 48.6096 26.0074C48.6096 27.7778 49.6127 29.0582 50.997 29.0582C52.3813 29.0582 53.3944 27.8279 53.3944 26.0074Z" fill="#FBFBFB"/>
<path d="M65.3022 26.0075C65.3022 28.8182 63.7976 30.6286 61.5205 30.6286C60.9392 30.6555 60.3621 30.5176 59.8561 30.2308C59.3501 29.944 58.936 29.5201 58.6617 29.0082V33.4893H56.7559V21.4863H58.5614V23.0067C58.8513 22.5031 59.2736 22.0879 59.7827 21.8058C60.2917 21.5238 60.8683 21.3857 61.4503 21.4063C63.7875 21.3563 65.3022 23.1668 65.3022 26.0075ZM63.3863 26.0075C63.3863 24.177 62.4434 23.0067 60.9889 23.0067C59.5344 23.0067 58.6116 24.237 58.6116 26.0075C58.6116 27.7779 59.5645 29.0082 60.9889 29.0082C62.4133 29.0082 63.3863 27.8079 63.3863 25.9575V26.0075Z" fill="#FBFBFB"/>
<path d="M71.9117 27.0072C72.0522 28.2375 73.2459 29.0077 74.921 29.0077C76.5962 29.0077 77.6193 28.1975 77.6193 27.0872C77.6193 25.977 76.9372 25.5469 75.3223 25.1468L73.7073 24.7567C71.4202 24.2065 70.367 23.1463 70.367 21.4158C70.367 19.2653 72.2327 17.7949 74.8909 17.7949C77.5491 17.7949 79.3346 19.2653 79.3948 21.4158H77.4789C77.3686 20.1755 76.3354 19.4153 74.8408 19.4153C73.3462 19.4153 72.313 20.1655 72.313 21.2758C72.313 22.146 72.965 22.6661 74.5699 23.0662L75.9442 23.3963C78.5021 24.0065 79.5653 25.0267 79.5653 26.8372C79.5653 29.1678 77.6996 30.6181 74.7505 30.6181C71.992 30.6181 70.1262 29.1978 70.0059 26.9572L71.9117 27.0072Z" fill="#FBFBFB"/>
<path d="M83.5885 19.3047V21.4452H85.3139V22.9156H83.5885V27.9168C83.5885 28.687 83.9296 29.0471 84.6919 29.0471C84.8926 29.0471 85.1032 29.0471 85.3038 29.0471V30.5075C84.9732 30.5702 84.6372 30.6003 84.3007 30.5975C82.455 30.5975 81.7428 29.9073 81.7428 28.1469V22.9156H80.3887V21.4452H81.7128V19.3047H83.5885Z" fill="#FBFBFB"/>
<path d="M86.3164 26.0064C86.3164 23.1557 87.9916 21.3652 90.6197 21.3652C93.2478 21.3652 94.9229 23.1557 94.9229 26.0064C94.9229 28.8571 93.2678 30.6175 90.6197 30.6175C87.9715 30.6175 86.3164 28.8371 86.3164 26.0064ZM93.0271 26.0064C93.0271 24.0559 92.1243 22.8956 90.6197 22.8956C89.115 22.8956 88.2524 24.0059 88.2524 26.0064C88.2524 28.0069 89.1451 29.1172 90.6598 29.1172C92.1745 29.1172 93.0672 27.9669 93.0672 26.0064H93.0271Z" fill="#FBFBFB"/>
<path d="M96.4668 21.4457H98.2824V23.0061C98.404 22.5254 98.6876 22.1011 99.0858 21.8042C99.484 21.5074 99.9724 21.3561 100.469 21.3757C100.685 21.3743 100.901 21.3978 101.111 21.4457V23.1862C100.85 23.0786 100.571 23.0177 100.289 23.0061C100.038 22.9899 99.7859 23.0239 99.5483 23.1061C99.3107 23.1884 99.092 23.3172 98.9051 23.4849C98.7182 23.6527 98.5668 23.856 98.4598 24.083C98.3529 24.31 98.2926 24.556 98.2824 24.8066C98.2824 24.8966 98.2824 24.9966 98.2824 25.0967V30.508H96.4668V21.4457Z" fill="#FBFBFB"/>
<path d="M109.699 27.8476C109.448 29.488 107.843 30.6183 105.797 30.6183C103.149 30.6183 101.514 28.8478 101.514 26.0171C101.514 23.1864 103.159 21.3359 105.717 21.3359C108.275 21.3359 109.809 23.0564 109.809 25.8071V26.4372H103.389V26.5572C103.337 27.179 103.533 27.7963 103.935 28.2743C104.337 28.7522 104.913 29.0519 105.536 29.1079H105.837C106.277 29.1488 106.718 29.0474 107.096 28.8186C107.474 28.5898 107.767 28.2458 107.933 27.8376L109.699 27.8476ZM103.399 25.1369H107.943C107.977 24.5691 107.785 24.011 107.41 23.5827C107.035 23.1543 106.506 22.8899 105.937 22.8463H105.767C105.464 22.8437 105.164 22.9006 104.884 23.014C104.604 23.1273 104.348 23.2947 104.133 23.5066C103.918 23.7185 103.747 23.9707 103.629 24.2488C103.512 24.5268 103.451 24.8252 103.45 25.1269L103.399 25.1369Z" fill="#FBFBFB"/>
<path d="M37.9265 8.73118C38.6269 8.68439 39.3175 8.91582 39.8475 9.37495C40.3774 9.83408 40.7038 10.4836 40.7552 11.1818C40.775 11.3546 40.775 11.5291 40.7552 11.7019C40.7552 13.6024 39.7521 14.7027 37.9465 14.7027H35.7598V8.70117L37.9265 8.73118ZM36.6926 13.8525H37.8161C38.0642 13.8701 38.3132 13.8384 38.5489 13.7591C38.7845 13.6799 39.002 13.5547 39.1887 13.3909C39.3754 13.2271 39.5275 13.0279 39.6363 12.8049C39.7451 12.5819 39.8083 12.3396 39.8223 12.092C39.8323 11.9655 39.8323 11.8384 39.8223 11.7119C39.8562 11.4669 39.8413 11.2176 39.7785 10.9783C39.7156 10.7391 39.606 10.5145 39.456 10.3175C39.306 10.1206 39.1185 9.95503 38.9042 9.83043C38.6899 9.70582 38.4531 9.6246 38.2073 9.59139C38.0872 9.58142 37.9664 9.58142 37.8462 9.59139H36.6926V13.8525Z" fill="#FBFBFB"/>
<path d="M45.8307 13.4835C45.7093 13.9048 45.4396 14.2683 45.071 14.5071C44.7025 14.746 44.2599 14.8443 43.8245 14.7839C43.5527 14.7974 43.281 14.7557 43.0259 14.6613C42.7708 14.5668 42.5377 14.4216 42.3406 14.2345C42.1436 14.0474 41.9868 13.8222 41.8797 13.5728C41.7727 13.3233 41.7177 13.0547 41.718 12.7834C41.718 12.6733 41.718 12.5633 41.718 12.4533C41.6813 12.1833 41.6985 11.9087 41.7684 11.6453C41.8383 11.382 41.9597 11.1349 42.1256 10.9184C42.2915 10.7019 42.4986 10.5202 42.735 10.3836C42.9715 10.2471 43.2326 10.1584 43.5035 10.1227C43.6036 10.1127 43.7044 10.1127 43.8044 10.1227C45.0583 10.1227 45.8106 10.9729 45.8106 12.3933V12.7033H42.701V12.7534C42.6816 13.0617 42.7842 13.3653 42.9867 13.5991C43.1892 13.8328 43.4756 13.9781 43.7844 14.0037H43.9048C44.1179 14.0258 44.3329 13.9856 44.5235 13.8879C44.7141 13.7902 44.8721 13.6393 44.9781 13.4535L45.8307 13.4835ZM42.701 12.0032H44.9781C44.989 11.8612 44.9717 11.7185 44.9271 11.5833C44.8826 11.448 44.8117 11.3229 44.7184 11.2151C44.6252 11.1072 44.5115 11.0189 44.384 10.955C44.2564 10.8911 44.1174 10.853 43.975 10.8429H43.8646C43.556 10.8429 43.2601 10.9651 43.0418 11.1827C42.8236 11.4003 42.701 11.6954 42.701 12.0032Z" fill="#FBFBFB"/>
<path d="M48.731 10.1113C49.7341 10.1113 50.4162 10.5814 50.5065 11.3716H49.6438C49.5636 11.0416 49.2426 10.8315 48.731 10.8315C48.2194 10.8315 47.8583 11.0716 47.8583 11.4217C47.8583 11.7717 48.089 11.8618 48.5805 11.9718L49.3328 12.1418C50.1855 12.3419 50.5867 12.712 50.5867 13.3721C50.5867 14.2224 49.7943 14.7825 48.721 14.7825C47.6476 14.7825 46.9455 14.3024 46.8652 13.5022H47.758C47.8352 13.6968 47.9767 13.8593 48.1591 13.963C48.3414 14.0666 48.5538 14.1052 48.7611 14.0723C49.3128 14.0723 49.7642 13.8223 49.7642 13.4622C49.7642 13.1021 49.5435 13.0121 49.0921 12.912L48.3097 12.732C47.447 12.5219 47.0558 12.1418 47.0558 11.4717C47.0558 10.8015 47.7179 10.1113 48.731 10.1113Z" fill="#FBFBFB"/>
<path d="M54.7489 11.6731C54.6942 11.4386 54.5567 11.2316 54.3613 11.0901C54.166 10.9487 53.9261 10.8822 53.6856 10.9029C52.9333 10.9029 52.4819 11.473 52.4819 12.4332C52.4819 13.3935 52.9333 14.0036 53.6856 14.0036C53.922 14.0257 54.1586 13.9634 54.3533 13.8279C54.548 13.6924 54.6882 13.4924 54.7489 13.2635H55.6115C55.5561 13.7195 55.3231 14.1356 54.9628 14.4219C54.6025 14.7082 54.1438 14.8418 53.6856 14.7938C53.4134 14.8032 53.142 14.7588 52.8871 14.6631C52.6321 14.5675 52.3987 14.4226 52.2001 14.2367C52.0015 14.0507 51.8418 13.8275 51.73 13.5798C51.6183 13.3321 51.5568 13.0648 51.549 12.7933C51.5343 12.6771 51.5343 12.5595 51.549 12.4432C51.4776 11.9037 51.6232 11.3579 51.954 10.925C52.2847 10.4921 52.7738 10.2073 53.3145 10.1327C53.4313 10.1224 53.5487 10.1224 53.6655 10.1327C54.1273 10.0904 54.5874 10.2301 54.9473 10.5217C55.3072 10.8132 55.5384 11.2337 55.5915 11.6931L54.7489 11.6731Z" fill="#FBFBFB"/>
<path d="M56.4922 13.4228C56.4922 12.6126 57.1041 12.1525 58.1774 12.0825L59.4012 12.0025V11.6124C59.4012 11.1423 59.0802 10.8722 58.4783 10.8722C57.8765 10.8722 57.6357 11.0522 57.5354 11.3723H56.6727C56.763 10.5921 57.4953 10.102 58.5184 10.102C59.5416 10.102 60.2839 10.6621 60.2839 11.6124V14.7032H59.4312V14.073H59.361C59.2184 14.2995 59.0176 14.4838 58.7795 14.6069C58.5414 14.73 58.2747 14.7874 58.0069 14.7732C57.8283 14.7926 57.6477 14.7767 57.4753 14.7263C57.3029 14.6759 57.1422 14.5921 57.0024 14.4796C56.8626 14.3672 56.7465 14.2283 56.6607 14.071C56.5748 13.9137 56.521 13.741 56.5022 13.5629C56.5022 13.5129 56.4922 13.4728 56.4922 13.4228ZM59.4012 13.0427V12.6626L58.2978 12.7327C57.6758 12.7327 57.395 12.9927 57.395 13.3828C57.395 13.7729 57.7461 14.023 58.2275 14.023C58.3673 14.0382 58.5087 14.0256 58.6436 13.986C58.7784 13.9464 58.9041 13.8805 59.0132 13.7921C59.1224 13.7037 59.2128 13.5946 59.2794 13.4712C59.346 13.3477 59.3874 13.2123 59.4012 13.0727V13.0427ZM57.9868 9.44184L58.9899 8.02148H59.993L58.8996 9.44184H57.9868Z" fill="#FBFBFB"/>
<path d="M61.6895 10.1921H62.5421V10.8923H62.6123C62.7045 10.6507 62.8724 10.4452 63.0911 10.3065C63.3098 10.1677 63.5675 10.103 63.826 10.1221C63.9593 10.1068 64.094 10.1068 64.2273 10.1221V11.0023C64.0605 10.987 63.8926 10.987 63.7257 11.0023C63.5841 10.99 63.4415 11.0064 63.3065 11.0505C63.1714 11.0947 63.0467 11.1656 62.9399 11.2591C62.833 11.3525 62.7463 11.4666 62.6848 11.5943C62.6233 11.7221 62.5884 11.861 62.5822 12.0025C62.5822 12.0025 62.5822 12.0726 62.5822 12.1026V14.7032H61.6995L61.6895 10.1921Z" fill="#FBFBFB"/>
<path d="M65.05 15.1532H65.9628C66.033 15.4833 66.4142 15.6934 66.9659 15.6934C67.5176 15.6934 68.1896 15.3333 68.1896 14.7431V13.8829H68.1194C67.9783 14.1234 67.7736 14.3205 67.5277 14.4528C67.2818 14.5851 67.0042 14.6475 66.7251 14.6331C65.5716 14.6331 64.8594 13.7429 64.8594 12.3926C64.8594 11.0422 65.5816 10.122 66.7352 10.122C67.0208 10.1123 67.3036 10.1809 67.553 10.3202C67.8023 10.4595 68.0086 10.6642 68.1495 10.9122H68.1896V10.192H69.0423V14.7331C69.0423 15.7334 68.2398 16.4236 66.9558 16.4236C65.8725 16.4236 65.1804 15.9134 65.05 15.1532ZM68.1896 12.3926C68.1896 11.4923 67.7282 10.9222 66.9659 10.9222C66.2035 10.9222 65.7722 11.4923 65.7722 12.3926C65.7722 13.2928 66.2035 13.8629 66.9659 13.8629C67.7282 13.8629 68.1896 13.2928 68.1896 12.3926Z" fill="#FBFBFB"/>
<path d="M70.2461 13.4224C70.2461 12.6122 70.858 12.1521 71.9313 12.0821L73.2052 12.002V11.6119C73.2052 11.1418 72.8842 10.8718 72.2824 10.8718C71.6805 10.8718 71.4398 11.0518 71.3395 11.3719H70.4768C70.5671 10.5917 71.2993 10.1016 72.3225 10.1016C73.3457 10.1016 74.0879 10.6617 74.0879 11.6119V14.7027H73.2052V14.0726H73.135C72.9907 14.2998 72.7882 14.4845 72.5484 14.6076C72.3086 14.7307 72.0401 14.7877 71.7708 14.7727C71.4118 14.8091 71.053 14.7022 70.7728 14.4754C70.4927 14.2485 70.3141 13.9203 70.2762 13.5624C70.2561 13.5124 70.2461 13.4724 70.2461 13.4224ZM73.2052 13.0023V12.6222L72.1018 12.6922C71.4799 12.6922 71.199 12.9523 71.199 13.3424C71.199 13.7325 71.5501 13.9825 72.0316 13.9825C72.172 14.0053 72.3156 13.9981 72.453 13.9613C72.5904 13.9245 72.7183 13.859 72.8283 13.7691C72.9384 13.6793 73.028 13.5671 73.0912 13.4401C73.1545 13.313 73.1899 13.174 73.1952 13.0323L73.2052 13.0023Z" fill="#FBFBFB"/>
<path d="M75.4824 8.44141H76.3651V14.703H75.4824V8.44141Z" fill="#FBFBFB"/>
<path d="M77.609 12.4425C77.5558 11.8788 77.7294 11.3171 78.0915 10.881C78.4536 10.4448 78.9747 10.17 79.54 10.1169C80.1053 10.0639 80.6686 10.2369 81.106 10.598C81.5434 10.9591 81.819 11.4787 81.8722 12.0424C81.8822 12.1756 81.8822 12.3093 81.8722 12.4425C81.8899 12.9855 81.6999 13.515 81.3407 13.9235C80.9815 14.332 80.48 14.589 79.9378 14.6424C79.3956 14.6958 78.8533 14.5417 78.4209 14.2112C77.9885 13.8807 77.6982 13.3986 77.609 12.8626C77.599 12.7228 77.599 12.5824 77.609 12.4425ZM80.9493 12.4425C80.9493 11.4423 80.508 10.9021 79.7356 10.9021C78.9632 10.9021 78.5319 11.4723 78.5319 12.4425C78.5319 13.4128 78.9632 14.0029 79.7356 14.0029C80.508 14.0029 80.9493 13.4228 80.9493 12.4425Z" fill="#FBFBFB"/>
<path d="M89.3346 13.4833C89.2132 13.9046 88.9435 14.268 88.5749 14.5069C88.2064 14.7458 87.7638 14.844 87.3284 14.7836C87.0566 14.7972 86.7849 14.7555 86.5298 14.661C86.2747 14.5666 86.0416 14.4214 85.8445 14.2343C85.6475 14.0471 85.4907 13.822 85.3836 13.5725C85.2766 13.323 85.2216 13.0545 85.2219 12.7831C85.2119 12.6733 85.2119 12.5628 85.2219 12.453C85.1852 12.183 85.2024 11.9085 85.2723 11.6451C85.3422 11.3817 85.4636 11.1347 85.6295 10.9182C85.7954 10.7017 86.0025 10.5199 86.2389 10.3834C86.4754 10.2468 86.7365 10.1582 87.0074 10.1225C87.1041 10.1128 87.2016 10.1128 87.2983 10.1225C88.5622 10.1225 89.3045 10.9727 89.3045 12.393V12.7031H86.2451V12.7531C86.2264 13.0486 86.3188 13.3404 86.5043 13.5716C86.6898 13.8028 86.955 13.9567 87.2482 14.0034H87.3585C87.572 14.0282 87.788 13.9891 87.9791 13.8912C88.1702 13.7932 88.3278 13.6408 88.4318 13.4533L89.3346 13.4833ZM86.2451 12.0029H88.5321C88.5515 11.7169 88.4571 11.4347 88.2694 11.2175C88.0816 11.0003 87.8156 10.8657 87.529 10.8426H87.4287C87.2746 10.8413 87.1217 10.8703 86.9788 10.9279C86.8359 10.9855 86.7058 11.0706 86.5959 11.1783C86.486 11.2861 86.3984 11.4143 86.3382 11.5558C86.278 11.6973 86.2464 11.8492 86.2451 12.0029Z" fill="#FBFBFB"/>
<path d="M90.5887 10.1917H91.4413V10.9119H91.5115C91.6225 10.6543 91.8121 10.4382 92.0535 10.2945C92.2949 10.1508 92.5756 10.0868 92.8557 10.1117C93.0481 10.0967 93.2416 10.1198 93.4251 10.1796C93.6085 10.2394 93.7783 10.3348 93.9247 10.4603C94.071 10.5858 94.1911 10.7389 94.2779 10.9108C94.3647 11.0827 94.4166 11.2701 94.4305 11.462C94.4458 11.5682 94.4458 11.6759 94.4305 11.7821V14.7028H93.5378V12.0022C93.5378 11.272 93.2268 10.9119 92.5347 10.9119C92.3964 10.9008 92.2573 10.9185 92.1261 10.9638C91.995 11.0091 91.8747 11.081 91.7729 11.175C91.6711 11.269 91.59 11.383 91.5346 11.5099C91.4793 11.6368 91.4509 11.7738 91.4513 11.9121C91.4464 11.962 91.4464 12.0123 91.4513 12.0622V14.7028H90.5586L90.5887 10.1917Z" fill="#FBFBFB"/>
<path d="M102.074 13.4828C101.951 13.9029 101.681 14.2651 101.313 14.5037C100.945 14.7422 100.503 14.8414 100.068 14.7831C99.7973 14.7953 99.5266 14.7525 99.2727 14.6575C99.0188 14.5624 98.7869 14.417 98.5909 14.23C98.3949 14.043 98.239 13.8183 98.1326 13.5696C98.0262 13.3208 97.9715 13.0531 97.9717 12.7826C97.9617 12.6728 97.9617 12.5623 97.9717 12.4525C97.9351 12.1818 97.9526 11.9065 98.0232 11.6425C98.0938 11.3786 98.216 11.1311 98.3829 10.9145C98.5498 10.6979 98.7581 10.5163 98.9957 10.3803C99.2333 10.2443 99.4955 10.1565 99.7673 10.122C99.864 10.1117 99.9615 10.1117 100.058 10.122C101.312 10.122 102.064 10.9722 102.064 12.3925V12.7026H98.9347V12.7526C98.9154 13.0625 99.0193 13.3676 99.224 13.6016C99.4286 13.8357 99.7175 13.9798 100.028 14.0029H100.138C100.352 14.0264 100.567 13.9867 100.758 13.8889C100.949 13.7911 101.107 13.6394 101.212 13.4528L102.074 13.4828ZM98.9347 12.0024H101.212C101.224 11.8602 101.208 11.717 101.164 11.5812C101.12 11.4453 101.049 11.3197 100.955 11.2115C100.862 11.1034 100.748 11.015 100.619 10.9516C100.491 10.8882 100.352 10.8509 100.209 10.8421H100.108C99.7988 10.8421 99.5018 10.964 99.282 11.1814C99.0622 11.3987 98.9374 11.6938 98.9347 12.0024Z" fill="#FBFBFB"/>
<path d="M103.357 8.44165H104.3V14.7032H103.408L103.357 8.44165Z" fill="#FBFBFB"/>
</svg>
