<svg width="16" height="17" viewBox="0 0 16 17" fill="none" xmlns="http://www.w3.org/2000/svg">
<g clip-path="url(#clip0_460_6701)">
<path d="M8.4 3.63284C8.34803 3.6334 8.29646 3.62372 8.24823 3.60435C8.2 3.58498 8.15606 3.5563 8.11892 3.51995C8.08177 3.4836 8.05215 3.44029 8.03175 3.39249C8.01135 3.34469 8.00056 3.29334 8 3.24137C8 1.7267 9.2544 0.500036 10.7989 0.500036C10.8509 0.499332 10.9026 0.508914 10.9509 0.528232C10.9992 0.54755 11.0432 0.576223 11.0803 0.612603C11.1175 0.648982 11.1471 0.69235 11.1675 0.740214C11.1878 0.788078 11.1985 0.839493 11.1989 0.891503C11.1989 2.40617 9.9456 3.63284 8.4 3.63284Z" fill="white"/>
<path d="M8.4001 3.63284C8.34813 3.6334 8.29656 3.62372 8.24833 3.60435C8.2001 3.58498 8.15616 3.5563 8.11902 3.51995C8.08187 3.4836 8.05225 3.44029 8.03185 3.39249C8.01144 3.34469 8.00065 3.29334 8.0001 3.24137C8.0001 1.7267 9.2545 0.500036 10.799 0.500036C10.851 0.499332 10.9027 0.508914 10.951 0.528232C10.9993 0.54755 11.0433 0.576223 11.0804 0.612603C11.1176 0.648982 11.1472 0.69235 11.1676 0.740214C11.1879 0.788078 11.1986 0.839493 11.199 0.891503C11.199 2.40617 9.9457 3.63284 8.4001 3.63284ZM14.2401 11.8792C14.3948 11.9923 14.4449 12.1992 14.3574 12.3678C12.9494 15.1262 11.8262 16.5 10.8001 16.5C10.3222 16.5 9.8529 16.3486 9.3953 16.0542C9.06686 15.8433 8.68653 15.7273 8.29631 15.719C7.9061 15.7108 7.52119 15.8105 7.1841 16.0072C6.62943 16.3326 6.10143 16.5 5.6001 16.5C4.09076 16.5 1.6001 11.9486 1.6001 9.4515C1.6001 6.78484 3.02836 4.75177 5.2001 4.75177C6.22196 4.75177 7.1041 4.89897 7.84543 5.1987C8.15903 5.32457 8.51423 5.31604 8.82036 5.17204C9.42196 4.8883 10.2156 4.75177 11.199 4.75177C12.4012 4.75177 13.4497 5.33844 14.3201 6.47444C14.3516 6.5154 14.3745 6.56227 14.3876 6.61226C14.4006 6.66226 14.4035 6.71436 14.396 6.76548C14.3886 6.81661 14.3709 6.86572 14.3441 6.9099C14.3174 6.95408 14.282 6.99244 14.2401 7.0227C13.2684 7.73737 12.8001 8.53844 12.8001 9.4515C12.8001 10.3635 13.2684 11.1656 14.2401 11.8792Z" fill="white"/>
<path d="M14.2401 11.8792C14.3948 11.9922 14.4449 12.1992 14.3574 12.3677C12.9494 15.1261 11.8262 16.5 10.8001 16.5C10.3222 16.5 9.8529 16.3485 9.3953 16.0541C9.06686 15.8432 8.68653 15.7273 8.29631 15.719C7.9061 15.7107 7.52119 15.8104 7.1841 16.0072C6.62943 16.3325 6.10143 16.5 5.6001 16.5C4.09076 16.5 1.6001 11.9485 1.6001 9.45144C1.6001 6.78478 3.02836 4.75171 5.2001 4.75171C6.22196 4.75171 7.1041 4.89891 7.84543 5.19864C8.15903 5.32451 8.51423 5.31598 8.82036 5.17198C9.42196 4.88824 10.2156 4.75171 11.199 4.75171C12.4012 4.75171 13.4497 5.33838 14.3201 6.47438C14.3516 6.51534 14.3745 6.56221 14.3876 6.6122C14.4006 6.6622 14.4035 6.7143 14.396 6.76542C14.3886 6.81655 14.3709 6.86566 14.3441 6.90984C14.3174 6.95402 14.282 6.99238 14.2401 7.02264C13.2684 7.73731 12.8001 8.53838 12.8001 9.45144C12.8001 10.3634 13.2684 11.1656 14.2401 11.8792Z" fill="white"/>
</g>
<defs>
<clipPath id="clip0_460_6701">
<rect width="16" height="16" fill="white" transform="translate(0 0.5)"/>
</clipPath>
</defs>
</svg>
