<svg width="134" height="40" viewBox="0 0 134 40" fill="none" xmlns="http://www.w3.org/2000/svg">
<mask id="mask0_340_33" style="mask-type:luminance" maskUnits="userSpaceOnUse" x="0" y="0" width="134" height="40">
<path d="M134 0H0V40H134V0Z" fill="white"/>
</mask>
<g mask="url(#mask0_340_33)">
<mask id="mask1_340_33" style="mask-type:luminance" maskUnits="userSpaceOnUse" x="0" y="0" width="134" height="40">
<path d="M134 0H0V40H134V0Z" fill="white"/>
</mask>
<g mask="url(#mask1_340_33)">
<path d="M129.036 40H4.96381C3.6485 39.9961 2.38816 39.468 1.4581 38.531C0.528032 37.594 0.00383075 36.3243 0 34.9992L0 5.00078C0.00383075 3.67568 0.528032 2.40595 1.4581 1.46896C2.38816 0.531965 3.6485 0.00385928 4.96381 0L129.036 0C130.352 0.00385928 131.612 0.531965 132.542 1.46896C133.472 2.40595 133.996 3.67568 134 5.00078V34.9992C133.996 36.3243 133.472 37.594 132.542 38.531C131.612 39.468 130.352 39.9961 129.036 40Z" fill="#12100B"/>
<path d="M129.036 0.800376C130.142 0.80093 131.202 1.24365 131.984 2.03126C132.766 2.81887 133.205 3.88694 133.206 5.00078V34.9992C133.204 36.1129 132.765 37.1806 131.983 37.9681C131.201 38.7556 130.142 39.1985 129.036 39.1996H4.96381C3.85837 39.1985 2.79851 38.7556 2.01685 37.9681C1.23518 37.1806 0.795557 36.1129 0.794458 34.9992V5.00078C0.795008 3.88694 1.23445 2.81887 2.01624 2.03126C2.79803 1.24365 3.8582 0.80093 4.96381 0.800376H129.036ZM129.036 0H4.96381C3.6485 0.00385928 2.38816 0.531965 1.4581 1.46896C0.528032 2.40595 0.00383075 3.67568 0 5.00078L0 34.9992C0.00383075 36.3243 0.528032 37.594 1.4581 38.531C2.38816 39.468 3.6485 39.9961 4.96381 40H129.036C130.352 39.9961 131.612 39.468 132.542 38.531C133.472 37.594 133.996 36.3243 134 34.9992V5.00078C133.996 3.67568 133.472 2.40595 132.542 1.46896C131.612 0.531965 130.352 0.00385928 129.036 0Z" fill="#AFACAB"/>
<path d="M67.6217 21.7497C66.7871 21.7526 65.972 22.0046 65.2794 22.4739C64.5868 22.9432 64.0477 23.6087 63.7303 24.3864C63.4129 25.1641 63.3313 26.0191 63.4959 26.8435C63.6605 27.6678 64.0639 28.4246 64.6551 29.0182C65.2463 29.6117 65.9988 30.0155 66.8177 30.1785C67.6365 30.3415 68.4849 30.2564 69.2558 29.9339C70.0266 29.6115 70.6854 29.0661 71.1488 28.3667C71.6122 27.6674 71.8595 26.8454 71.8595 26.0045C71.868 25.4421 71.764 24.8838 71.5539 24.3628C71.3437 23.8418 71.0316 23.3687 70.6362 22.9717C70.2408 22.5748 69.7702 22.262 69.2523 22.052C68.7344 21.8421 68.1799 21.7393 67.6217 21.7497ZM67.6217 28.5811C66.344 28.5811 65.2384 27.5175 65.2384 26.0045C65.2384 24.4915 66.3523 23.4257 67.6217 23.4257C68.8912 23.4257 70.0051 24.4706 70.0051 26.0045C70.0051 27.5384 68.9016 28.5811 67.6217 28.5811ZM58.3766 21.7497C57.542 21.753 56.7271 22.0054 56.0348 22.4749C55.3424 22.9444 54.8037 23.6101 54.4866 24.3878C54.1695 25.1655 54.0882 26.0205 54.2531 26.8447C54.4179 27.669 54.8214 28.4255 55.4127 29.0189C56.004 29.6123 56.7565 30.0158 57.5753 30.1786C58.3941 30.3415 59.2424 30.2562 60.0131 29.9337C60.7839 29.6112 61.4425 29.0659 61.9058 28.3665C62.3692 27.6672 62.6164 26.8453 62.6164 26.0045C62.6249 25.442 62.5209 24.8835 62.3106 24.3623C62.1003 23.8412 61.788 23.368 61.3924 22.971C60.9968 22.574 60.5259 22.2612 60.0077 22.0514C59.4896 21.8416 58.9349 21.739 58.3766 21.7497ZM58.3766 28.5811C57.0988 28.5811 55.9953 27.5175 55.9953 26.0045C55.9953 24.4915 57.0988 23.4257 58.3766 23.4257C59.6543 23.4257 60.7599 24.4706 60.7599 26.0045C60.7599 27.5384 59.6564 28.5811 58.3766 28.5811ZM47.3828 23.0558V24.8676H51.6683C51.5397 25.8812 51.2057 26.623 50.6933 27.1371C50.0711 27.764 49.0941 28.4578 47.3745 28.4578C46.1529 28.3949 45.002 27.8617 44.1595 26.9684C43.3169 26.0751 42.8472 24.8899 42.8472 23.6577C42.8472 22.4254 43.3169 21.2402 44.1595 20.3469C45.002 19.4536 46.1529 18.9204 47.3745 18.8575C48.5793 18.8371 49.7433 19.2976 50.6124 20.1385L51.8778 18.868C51.2867 18.278 50.5846 17.8129 49.8127 17.5C49.0409 17.187 48.2147 17.0326 47.3828 17.0457C43.7693 17.0457 40.7305 20.0111 40.7305 23.6514C40.7305 27.2918 43.7693 30.2571 47.3828 30.2571C49.3347 30.2571 50.8054 29.6114 51.9462 28.4035C53.1286 27.2123 53.4978 25.5364 53.4978 24.1843C53.5027 23.8058 53.47 23.4278 53.4003 23.0558H47.3828ZM92.3619 24.4497C92.0093 23.4989 90.939 21.733 88.7485 21.733C86.5581 21.733 84.7659 23.4571 84.7659 25.9878C84.7538 26.5469 84.8537 27.1027 85.0596 27.6221C85.2656 28.1415 85.5732 28.6137 85.9643 29.0107C86.3554 29.4076 86.8219 29.7211 87.3359 29.9323C87.8499 30.1436 88.4009 30.2484 88.9559 30.2404C89.6525 30.2462 90.3395 30.0773 90.9551 29.749C91.5706 29.4207 92.0955 28.9432 92.4823 28.3596L91.0427 27.3921C90.5635 28.1026 89.9081 28.5686 88.9684 28.5686C88.5384 28.5852 88.1134 28.4713 87.7484 28.2418C87.3834 28.0123 87.0952 27.6777 86.9211 27.2813L92.5652 24.9282L92.3619 24.4497ZM86.6058 25.8665C86.5884 25.5587 86.6319 25.2504 86.7336 24.9595C86.8353 24.6687 86.9933 24.4011 87.1983 24.1721C87.4034 23.9432 87.6515 23.7575 87.9283 23.6258C88.205 23.4941 88.505 23.419 88.8107 23.4048C89.5492 23.4048 90.1715 23.7747 90.3789 24.3076L86.6058 25.8665ZM82.0153 29.9917H83.8698V17.4971H82.0153V29.9917ZM78.9765 22.6922H78.9142C78.6318 22.3838 78.2874 22.1396 77.904 21.9756C77.5206 21.8117 77.107 21.7318 76.6906 21.7414C74.5789 21.7414 72.6457 23.6221 72.6457 26.0128C72.6457 28.4035 74.5789 30.2488 76.6906 30.2488C77.1088 30.2599 77.5243 30.1791 77.9083 30.012C78.2923 29.8449 78.6356 29.5955 78.9142 29.2812H78.9765V29.8935C78.9765 31.5214 78.1136 32.3908 76.7238 32.3908C75.5871 32.3908 74.8839 31.5695 74.5955 30.8778L72.9817 31.5549C73.2863 32.2993 73.8042 32.9354 74.4692 33.3821C75.1342 33.8287 75.9162 34.0656 76.7155 34.0626C78.8894 34.0626 80.7293 32.7732 80.7293 29.6323V22.0089H78.9682L78.9765 22.6922ZM76.8503 28.5728C75.5705 28.5728 74.5001 27.4945 74.5001 26.0128C74.5001 24.5312 75.5705 23.4174 76.8503 23.4174C78.1302 23.4174 79.1051 24.5145 79.1051 26.0128C79.1051 27.5112 78.1136 28.5728 76.8503 28.5728ZM101.051 17.4971H96.6143V29.998H98.4646V25.2626H101.051C103.105 25.2626 105.121 23.7663 105.121 21.3798C105.121 18.9933 103.105 17.4992 101.051 17.4992M101.099 23.5239H98.4646V19.2378H101.099C101.384 19.2289 101.668 19.2777 101.934 19.3813C102.199 19.485 102.442 19.6414 102.647 19.8413C102.851 20.0412 103.014 20.2805 103.125 20.5449C103.236 20.8094 103.294 21.0937 103.294 21.3809C103.294 21.6681 103.236 21.9524 103.125 22.2168C103.014 22.4813 102.851 22.7206 102.647 22.9205C102.442 23.1204 102.199 23.2768 101.934 23.3804C101.668 23.4841 101.384 23.5329 101.099 23.5239ZM112.545 21.733C111.205 21.733 109.815 22.3286 109.241 23.6451L110.885 24.3368C111.236 23.6451 111.889 23.4215 112.578 23.4215C113.534 23.4215 114.509 24.0004 114.524 25.0286V25.1581C113.93 24.839 113.266 24.6731 112.593 24.6754C110.821 24.6754 109.017 25.6576 109.017 27.4903C109.017 29.1621 110.469 30.2404 112.097 30.2404C113.341 30.2404 114.03 29.6783 114.462 29.0179H114.524V29.9834H116.312V25.1853C116.312 22.966 114.669 21.7288 112.545 21.7288M112.323 28.579C111.715 28.579 110.871 28.2739 110.871 27.5175C110.871 26.552 111.925 26.1842 112.835 26.1842C113.426 26.1676 114.01 26.312 114.526 26.6021C114.458 27.144 114.198 27.6428 113.793 28.0063C113.389 28.3697 112.867 28.5732 112.325 28.579M122.827 22.0005L120.703 27.4213H120.639L118.442 22.0005H116.447L119.751 29.5759L117.861 33.7909H119.793L124.885 22.0005H122.827ZM106.146 30.0001H107.998V17.4992H106.146V30.0001Z" fill="white"/>
<path d="M20.5647 19.4347L9.99609 30.7194C10.1099 31.1474 10.3203 31.5432 10.6109 31.8757C10.9016 32.2083 11.2646 32.4687 11.6716 32.6366C12.0787 32.8045 12.5187 32.8754 12.9574 32.8437C13.3961 32.812 13.8216 32.6786 14.2007 32.4539L14.2339 32.4351L26.1362 25.5305L20.5647 19.4347Z" fill="#E43629"/>
<path d="M31.2556 17.4992H31.2452L26.1092 14.4941L20.3281 19.6809L26.1362 25.5322L31.239 22.569C31.6914 22.323 32.0695 21.9587 32.3337 21.5143C32.5978 21.07 32.7381 20.5622 32.7398 20.0443C32.7415 19.5264 32.6045 19.0176 32.3433 18.5715C32.0821 18.1255 31.7063 17.7586 31.2556 17.5097" fill="#F9BD00"/>
<path d="M9.99594 9.27637C9.93078 9.51746 9.89799 9.76627 9.89845 10.0161V29.9837C9.89771 30.2336 9.93051 30.4825 9.99594 30.7235L20.9275 19.7126L9.99594 9.27637Z" fill="#587DBE"/>
<path d="M20.6414 20.001L26.1114 14.4924L14.2297 7.55234C13.8504 7.32255 13.4232 7.18467 12.9819 7.14956C12.5406 7.11446 12.0973 7.18308 11.6868 7.35003C11.2764 7.51698 10.91 7.7777 10.6166 8.11162C10.3232 8.44555 10.1108 8.84357 9.99609 9.2743L20.6414 20.001Z" fill="#30A043"/>
</g>
<path d="M41.4727 6.89555H43.4515C44.032 6.88136 44.6065 7.01582 45.1214 7.28633C45.5862 7.53743 45.9677 7.92033 46.2187 8.38763C46.4815 8.88645 46.6136 9.44463 46.6024 10.0093C46.6136 10.5746 46.4815 11.1335 46.2187 11.633C45.9696 12.105 45.5879 12.4924 45.1214 12.7469C44.6067 13.0181 44.0322 13.1533 43.4515 13.1397H41.4727V6.89555ZM43.4246 12.2202C44.1285 12.2202 44.674 12.0245 45.0612 11.633C45.2625 11.4163 45.418 11.1606 45.5182 10.8815C45.6184 10.6023 45.6612 10.3056 45.6441 10.0093C45.6612 9.71329 45.6183 9.41688 45.5181 9.13809C45.4179 8.85931 45.2624 8.60398 45.0612 8.38763C44.6733 7.99476 44.1278 7.80041 43.4246 7.80041H42.4227V12.2286L43.4246 12.2202Z" fill="white"/>
<path d="M47.8477 6.89648H51.5959V7.80135H48.7977V9.55883H51.318V10.4637H48.7977V12.2212H51.5959V13.126H47.8477V6.89648Z" fill="white"/>
<path d="M53.2628 12.821C52.8448 12.5058 52.5438 12.0584 52.4082 11.5504L53.3105 11.1847C53.3886 11.511 53.5595 11.8073 53.8021 12.0373C54.0329 12.2561 54.3399 12.3747 54.6567 12.3675C54.9385 12.3739 55.2146 12.2873 55.4429 12.1209C55.5474 12.0445 55.6315 11.9433 55.688 11.8263C55.7444 11.7093 55.7714 11.5801 55.7665 11.4501C55.7691 11.3278 55.745 11.2063 55.6959 11.0944C55.6468 10.9824 55.5739 10.8827 55.4823 10.8023C55.1875 10.5756 54.8534 10.4063 54.497 10.3028L54.1091 10.1628C53.7191 10.0311 53.3614 9.81739 53.0595 9.53589C52.9199 9.3959 52.8108 9.22802 52.7393 9.04303C52.6679 8.85804 52.6356 8.66005 52.6447 8.46176C52.6449 8.1591 52.732 7.86297 52.8957 7.60914C53.0643 7.34016 53.3033 7.12324 53.5864 6.98221C53.8994 6.82804 54.2441 6.7507 54.5924 6.75652C55.0541 6.73263 55.5094 6.87319 55.8785 7.15357C56.1762 7.38237 56.404 7.69084 56.5361 8.04381L55.6794 8.40951C55.6191 8.19569 55.4926 8.00682 55.3185 7.87036C55.1128 7.71281 54.8588 7.63294 54.6007 7.64466C54.3438 7.63667 54.0917 7.71619 53.8851 7.87036C53.7932 7.93472 53.7184 8.02072 53.6671 8.12088C53.6157 8.22104 53.5895 8.33232 53.5906 8.44504C53.5874 8.54918 53.6089 8.65259 53.6532 8.74671C53.6976 8.84083 53.7636 8.92296 53.8457 8.98629C54.0938 9.16458 54.3692 9.30082 54.6609 9.38961L55.0592 9.52962C55.5174 9.67273 55.9369 9.92013 56.2851 10.2527C56.4322 10.4105 56.5462 10.5966 56.6203 10.7998C56.6945 11.003 56.7272 11.2192 56.7165 11.4355C56.7291 11.8009 56.6211 12.1603 56.4095 12.4574C56.2097 12.7309 55.9382 12.9429 55.6254 13.0697C55.3155 13.2044 54.9819 13.2755 54.6443 13.2786C54.1466 13.282 53.6614 13.1213 53.2628 12.821Z" fill="white"/>
<path d="M59.1471 12.8451C58.6612 12.5672 58.2596 12.1612 57.9855 11.6706C57.708 11.1645 57.5625 10.5958 57.5625 10.0176C57.5625 9.43948 57.708 8.87075 57.9855 8.36465C58.2602 7.87454 58.6616 7.46865 59.1471 7.19021C59.6462 6.90716 60.2111 6.76291 60.7838 6.77226C61.215 6.7623 61.6431 6.84835 62.0375 7.02427C62.4319 7.20019 62.7829 7.46164 63.0655 7.78997L62.4017 8.44406C62.2073 8.20338 61.964 8.00743 61.6882 7.86938C61.4058 7.73699 61.0972 7.67124 60.7858 7.67712C60.3841 7.673 59.9882 7.7738 59.6367 7.96969C59.2926 8.16267 59.0089 8.44854 58.8173 8.79514C58.6184 9.17448 58.5144 9.597 58.5144 10.026C58.5144 10.455 58.6184 10.8775 58.8173 11.2569C59.0076 11.6071 59.2914 11.8967 59.6367 12.0928C59.9884 12.288 60.3843 12.3881 60.7858 12.3833C61.1284 12.3852 61.4668 12.3069 61.7742 12.1546C62.0816 12.0023 62.3497 11.7801 62.5573 11.5056L63.2377 12.1659C62.9433 12.5208 62.575 12.8062 62.159 13.0018C61.6801 13.2163 61.1583 13.3161 60.6346 13.2932C60.1109 13.2704 59.5997 13.1256 59.1409 12.8702L59.1471 12.8451Z" fill="white"/>
<path d="M66.1806 6.89648H67.2593L69.5991 13.126H68.5619L67.9915 11.5253H65.4629L64.8946 13.126H63.8574L66.1806 6.89648ZM67.6741 10.6371L66.9834 8.72711L66.7511 8.0145H66.6992L66.4648 8.72711L65.7741 10.6371H67.6741Z" fill="white"/>
<path d="M70.5254 6.89669H72.693C73.0458 6.89179 73.3943 6.97508 73.7074 7.1391C74.0093 7.29795 74.2612 7.53866 74.4346 7.83406C74.6079 8.12947 74.6959 8.46781 74.6885 8.8109C74.6924 9.21709 74.5493 9.6108 74.2861 9.91847C74.0262 10.2354 73.6744 10.4627 73.2801 10.5684V10.6102L74.981 13.0824V13.1346H73.8837L72.2346 10.6896H71.4837V13.1346H70.5254V6.89669ZM72.6681 9.80145C72.9483 9.81326 73.2218 9.7134 73.4294 9.52351C73.5288 9.43202 73.6076 9.32017 73.6606 9.19546C73.7135 9.07074 73.7394 8.93606 73.7364 8.80046C73.7369 8.66523 73.71 8.53133 73.6574 8.4069C73.6049 8.28248 73.5277 8.17012 73.4307 8.07668C73.3337 7.98324 73.2188 7.91066 73.0931 7.86336C72.9673 7.81606 72.8333 7.79503 72.6993 7.80155H71.4733V9.80981L72.6681 9.80145Z" fill="white"/>
<path d="M77.1903 12.8456C76.6949 12.5625 76.2839 12.151 75.9997 11.6538C75.7156 11.1566 75.5687 10.5918 75.5744 10.0181C75.5687 9.44446 75.7156 8.8797 75.9997 8.38251C76.2839 7.88531 76.6949 7.47381 77.1903 7.19071C77.6855 6.90925 78.2459 6.76503 78.8144 6.77276C79.2612 6.76752 79.7043 6.85353 80.1171 7.02562C80.5009 7.18409 80.8457 7.42516 81.1273 7.73195L80.4822 8.38396C80.2752 8.1487 80.019 7.96259 79.7321 7.83901C79.4451 7.71543 79.1346 7.65746 78.8227 7.66926C78.4266 7.66745 78.0366 7.76819 77.6902 7.96183C77.3423 8.15796 77.0551 8.44728 76.8604 8.79773C76.6495 9.17114 76.542 9.59481 76.5493 10.0244C76.5411 10.456 76.6501 10.8816 76.8646 11.2553C77.0614 11.6041 77.3481 11.8929 77.6943 12.0912C78.041 12.2785 78.4294 12.3734 78.8227 12.367C79.116 12.3773 79.4083 12.3269 79.6815 12.2191C79.9548 12.1113 80.2033 11.9483 80.4117 11.7401C80.5521 11.6006 80.6648 11.4353 80.7435 11.2532C80.8359 11.0452 80.898 10.8249 80.9282 10.5991H78.8041V9.7632H81.8097C81.8416 9.92993 81.8589 10.0991 81.8616 10.2689C81.8631 10.6521 81.8007 11.0329 81.677 11.3953C81.556 11.7487 81.3607 12.0716 81.1045 12.342C80.8276 12.643 80.4884 12.8792 80.1109 13.0337C79.7009 13.1966 79.2634 13.2775 78.8227 13.2719C78.2506 13.2786 77.6871 13.1314 77.1903 12.8456Z" fill="white"/>
<path d="M84.6162 6.89648H85.6948L88.0367 13.126H86.9996L86.4291 11.5253H83.9006L83.3301 13.126H82.293L84.6162 6.89648ZM86.1097 10.6371L85.4189 8.73547L85.1866 8.02286H85.1348L84.9004 8.73547L84.2158 10.6455L86.1097 10.6371Z" fill="white"/>
<path d="M88.9688 6.89573H91.1364C91.4892 6.89065 91.8378 6.97395 92.1507 7.13814C92.4527 7.29699 92.7046 7.53769 92.8779 7.8331C93.0513 8.1285 93.1392 8.46685 93.1319 8.80994C93.1358 9.21612 92.9927 9.60983 92.7295 9.91751C92.4699 10.2349 92.118 10.4622 91.7234 10.5674V10.6092L93.4244 13.0814V13.1336H92.3291L90.6697 10.6886H89.9188V13.1336H88.9688V6.89573ZM91.1115 9.80049C91.3907 9.80837 91.6618 9.70557 91.8666 9.51419C91.9663 9.42296 92.0453 9.31115 92.0983 9.18638C92.1513 9.06161 92.1769 8.9268 92.1735 8.79113C92.174 8.65591 92.1471 8.52201 92.0946 8.39758C92.042 8.27316 91.9649 8.1608 91.8678 8.06736C91.7708 7.97392 91.6559 7.90134 91.5302 7.85404C91.4044 7.80674 91.2705 7.78571 91.1364 7.79223H89.9105V9.80049H91.1115Z" fill="white"/>
<path d="M96.248 6.89648H99.9963V7.80135H97.2002V9.55883H99.7204V10.4637H97.2002V12.2212H99.9984V13.126H96.248V6.89648Z" fill="white"/>
<path d="M101.328 6.89648H102.451L105.249 11.473H105.301L105.249 10.2714V6.89648H106.188V13.1344H105.205L102.264 8.3217H102.212L102.264 9.52331V13.1344H101.324L101.328 6.89648Z" fill="white"/>
</g>
</svg>
