<svg width="24" height="25" viewBox="0 0 24 25" fill="none" xmlns="http://www.w3.org/2000/svg">
<path d="M12 12.0166C10.9 12.0166 9.95833 11.6249 9.175 10.8416C8.39167 10.0583 8 9.1166 8 8.0166C8 6.9166 8.39167 5.97493 9.175 5.1916C9.95833 4.40827 10.9 4.0166 12 4.0166C13.1 4.0166 14.0417 4.40827 14.825 5.1916C15.6083 5.97493 16 6.9166 16 8.0166C16 9.1166 15.6083 10.0583 14.825 10.8416C14.0417 11.6249 13.1 12.0166 12 12.0166ZM4 20.0166V17.2166C4 16.6499 4.14583 16.1291 4.4375 15.6541C4.72917 15.1791 5.11667 14.8166 5.6 14.5666C6.63333 14.0499 7.68333 13.6624 8.75 13.4041C9.81667 13.1458 10.9 13.0166 12 13.0166C13.1 13.0166 14.1833 13.1458 15.25 13.4041C16.3167 13.6624 17.3667 14.0499 18.4 14.5666C18.8833 14.8166 19.2708 15.1791 19.5625 15.6541C19.8542 16.1291 20 16.6499 20 17.2166V20.0166H4ZM6 18.0166H18V17.2166C18 17.0333 17.9542 16.8666 17.8625 16.7166C17.7708 16.5666 17.65 16.4499 17.5 16.3666C16.6 15.9166 15.6917 15.5791 14.775 15.3541C13.8583 15.1291 12.9333 15.0166 12 15.0166C11.0667 15.0166 10.1417 15.1291 9.225 15.3541C8.30833 15.5791 7.4 15.9166 6.5 16.3666C6.35 16.4499 6.22917 16.5666 6.1375 16.7166C6.04583 16.8666 6 17.0333 6 17.2166V18.0166ZM12 10.0166C12.55 10.0166 13.0208 9.82077 13.4125 9.4291C13.8042 9.03744 14 8.5666 14 8.0166C14 7.4666 13.8042 6.99577 13.4125 6.6041C13.0208 6.21244 12.55 6.0166 12 6.0166C11.45 6.0166 10.9792 6.21244 10.5875 6.6041C10.1958 6.99577 10 7.4666 10 8.0166C10 8.5666 10.1958 9.03744 10.5875 9.4291C10.9792 9.82077 11.45 10.0166 12 10.0166Z" fill="#50E3C1"/>
</svg>
