<svg width="20" height="21" viewBox="0 0 20 21" fill="none" xmlns="http://www.w3.org/2000/svg">
<path d="M9.1 17.0166H10.85V15.7666C11.6833 15.6166 12.4 15.2916 13 14.7916C13.6 14.2916 13.9 13.5499 13.9 12.5666C13.9 11.8666 13.7 11.2249 13.3 10.6416C12.9 10.0583 12.1 9.54994 10.9 9.1166C9.9 8.78327 9.20833 8.4916 8.825 8.2416C8.44167 7.9916 8.25 7.64994 8.25 7.2166C8.25 6.78327 8.40417 6.4416 8.7125 6.1916C9.02083 5.9416 9.46667 5.8166 10.05 5.8166C10.5833 5.8166 11 5.94577 11.3 6.2041C11.6 6.46243 11.8167 6.78327 11.95 7.1666L13.55 6.5166C13.3667 5.93327 13.0292 5.42493 12.5375 4.9916C12.0458 4.55827 11.5 4.3166 10.9 4.2666V3.0166H9.15V4.2666C8.31667 4.44993 7.66667 4.8166 7.2 5.3666C6.73333 5.9166 6.5 6.53327 6.5 7.2166C6.5 7.99994 6.72917 8.63327 7.1875 9.1166C7.64583 9.59993 8.36667 10.0166 9.35 10.3666C10.4 10.7499 11.1292 11.0916 11.5375 11.3916C11.9458 11.6916 12.15 12.0833 12.15 12.5666C12.15 13.1166 11.9542 13.5208 11.5625 13.7791C11.1708 14.0374 10.7 14.1666 10.15 14.1666C9.6 14.1666 9.1125 13.9958 8.6875 13.6541C8.2625 13.3124 7.95 12.7999 7.75 12.1166L6.1 12.7666C6.33333 13.5666 6.69583 14.2124 7.1875 14.7041C7.67917 15.1958 8.31667 15.5333 9.1 15.7166V17.0166ZM10 20.0166C8.61667 20.0166 7.31667 19.7541 6.1 19.2291C4.88333 18.7041 3.825 17.9916 2.925 17.0916C2.025 16.1916 1.3125 15.1333 0.7875 13.9166C0.2625 12.6999 0 11.3999 0 10.0166C0 8.63327 0.2625 7.33327 0.7875 6.1166C1.3125 4.89993 2.025 3.8416 2.925 2.9416C3.825 2.0416 4.88333 1.3291 6.1 0.804102C7.31667 0.279102 8.61667 0.0166016 10 0.0166016C11.3833 0.0166016 12.6833 0.279102 13.9 0.804102C15.1167 1.3291 16.175 2.0416 17.075 2.9416C17.975 3.8416 18.6875 4.89993 19.2125 6.1166C19.7375 7.33327 20 8.63327 20 10.0166C20 11.3999 19.7375 12.6999 19.2125 13.9166C18.6875 15.1333 17.975 16.1916 17.075 17.0916C16.175 17.9916 15.1167 18.7041 13.9 19.2291C12.6833 19.7541 11.3833 20.0166 10 20.0166ZM10 18.0166C12.2333 18.0166 14.125 17.2416 15.675 15.6916C17.225 14.1416 18 12.2499 18 10.0166C18 7.78327 17.225 5.8916 15.675 4.3416C14.125 2.7916 12.2333 2.0166 10 2.0166C7.76667 2.0166 5.875 2.7916 4.325 4.3416C2.775 5.8916 2 7.78327 2 10.0166C2 12.2499 2.775 14.1416 4.325 15.6916C5.875 17.2416 7.76667 18.0166 10 18.0166Z" fill="#50E3C1"/>
</svg>
