<svg width="24" height="25" viewBox="0 0 24 25" fill="none" xmlns="http://www.w3.org/2000/svg">
<path d="M3 20.0166C2.71667 20.0166 2.47917 19.9208 2.2875 19.7291C2.09583 19.5374 2 19.2999 2 19.0166C2 18.8499 2.03333 18.6958 2.1 18.5541C2.16667 18.4124 2.26667 18.2999 2.4 18.2166L11 11.7666V10.0166C11 9.73327 11.1 9.49577 11.3 9.3041C11.5 9.11243 11.7417 9.0166 12.025 9.0166C12.4417 9.0166 12.7917 8.8666 13.075 8.5666C13.3583 8.2666 13.5 7.90827 13.5 7.4916C13.5 7.07493 13.3542 6.72493 13.0625 6.4416C12.7708 6.15827 12.4167 6.0166 12 6.0166C11.5833 6.0166 11.2292 6.16243 10.9375 6.4541C10.6458 6.74577 10.5 7.09994 10.5 7.5166H8.5C8.5 6.54993 8.84167 5.72493 9.525 5.0416C10.2083 4.35827 11.0333 4.0166 12 4.0166C12.9667 4.0166 13.7917 4.3541 14.475 5.0291C15.1583 5.7041 15.5 6.52494 15.5 7.4916C15.5 8.27493 15.2708 8.97494 14.8125 9.5916C14.3542 10.2083 13.75 10.6333 13 10.8666V11.7666L21.6 18.2166C21.7333 18.2999 21.8333 18.4124 21.9 18.5541C21.9667 18.6958 22 18.8499 22 19.0166C22 19.2999 21.9042 19.5374 21.7125 19.7291C21.5208 19.9208 21.2833 20.0166 21 20.0166H3ZM6 18.0166H18L12 13.5166L6 18.0166Z" fill="#50E3C1"/>
</svg>
