<svg width="20" height="17" viewBox="0 0 20 17" fill="none" xmlns="http://www.w3.org/2000/svg">
<path d="M12 9.0166H17V7.0166H12V9.0166ZM12 6.0166H17V4.0166H12V6.0166ZM3 12.0166H11V11.4666C11 10.7166 10.6333 10.1208 9.9 9.6791C9.16667 9.23744 8.2 9.0166 7 9.0166C5.8 9.0166 4.83333 9.23744 4.1 9.6791C3.36667 10.1208 3 10.7166 3 11.4666V12.0166ZM7 8.0166C7.55 8.0166 8.02083 7.82077 8.4125 7.4291C8.80417 7.03744 9 6.5666 9 6.0166C9 5.4666 8.80417 4.99577 8.4125 4.6041C8.02083 4.21243 7.55 4.0166 7 4.0166C6.45 4.0166 5.97917 4.21243 5.5875 4.6041C5.19583 4.99577 5 5.4666 5 6.0166C5 6.5666 5.19583 7.03744 5.5875 7.4291C5.97917 7.82077 6.45 8.0166 7 8.0166ZM2 16.0166C1.45 16.0166 0.979167 15.8208 0.5875 15.4291C0.195833 15.0374 0 14.5666 0 14.0166V2.0166C0 1.4666 0.195833 0.995768 0.5875 0.604102C0.979167 0.212435 1.45 0.0166016 2 0.0166016H18C18.55 0.0166016 19.0208 0.212435 19.4125 0.604102C19.8042 0.995768 20 1.4666 20 2.0166V14.0166C20 14.5666 19.8042 15.0374 19.4125 15.4291C19.0208 15.8208 18.55 16.0166 18 16.0166H2ZM2 14.0166H18V2.0166H2V14.0166Z" fill="#50E3C1"/>
</svg>
