<svg width="14" height="23" viewBox="0 0 14 23" fill="none" xmlns="http://www.w3.org/2000/svg">
<path d="M2 22.0166C1.45 22.0166 0.979167 21.8208 0.5875 21.4291C0.195833 21.0374 0 20.5666 0 20.0166V2.0166C0 1.4666 0.195833 0.995768 0.5875 0.604102C0.979167 0.212435 1.45 0.0166016 2 0.0166016H12C12.55 0.0166016 13.0208 0.212435 13.4125 0.604102C13.8042 0.995768 14 1.4666 14 2.0166V20.0166C14 20.5666 13.8042 21.0374 13.4125 21.4291C13.0208 21.8208 12.55 22.0166 12 22.0166H2ZM2 19.0166V20.0166H12V19.0166H2ZM2 17.0166H12V5.0166H2V17.0166ZM2 3.0166H12V2.0166H2V3.0166Z" fill="#50E3C1"/>
</svg>
