<svg width="24" height="25" viewBox="0 0 24 25" fill="none" xmlns="http://www.w3.org/2000/svg">
<path d="M12 22.0166C10.6167 22.0166 9.31667 21.7541 8.1 21.2291C6.88333 20.7041 5.825 19.9916 4.925 19.0916C4.025 18.1916 3.3125 17.1333 2.7875 15.9166C2.2625 14.6999 2 13.3999 2 12.0166C2 10.6333 2.2625 9.33327 2.7875 8.1166C3.3125 6.89993 4.025 5.8416 4.925 4.9416C5.825 4.0416 6.88333 3.3291 8.1 2.8041C9.31667 2.2791 10.6167 2.0166 12 2.0166C13.3833 2.0166 14.6833 2.2791 15.9 2.8041C17.1167 3.3291 18.175 4.0416 19.075 4.9416C19.975 5.8416 20.6875 6.89993 21.2125 8.1166C21.7375 9.33327 22 10.6333 22 12.0166C22 12.4666 21.975 12.9083 21.925 13.3416C21.875 13.7749 21.7917 14.1999 21.675 14.6166C21.4417 14.3499 21.1708 14.1249 20.8625 13.9416C20.5542 13.7583 20.2167 13.6333 19.85 13.5666C19.9 13.3166 19.9375 13.0624 19.9625 12.8041C19.9875 12.5458 20 12.2833 20 12.0166C20 9.78327 19.225 7.8916 17.675 6.3416C16.125 4.7916 14.2333 4.0166 12 4.0166C9.76667 4.0166 7.875 4.7916 6.325 6.3416C4.775 7.8916 4 9.78327 4 12.0166C4 14.2499 4.775 16.1416 6.325 17.6916C7.875 19.2416 9.76667 20.0166 12 20.0166C12.85 20.0166 13.6625 19.8916 14.4375 19.6416C15.2125 19.3916 15.925 19.0416 16.575 18.5916C16.775 18.8749 17.0208 19.1249 17.3125 19.3416C17.6042 19.5583 17.9167 19.7249 18.25 19.8416C17.4 20.5249 16.4458 21.0583 15.3875 21.4416C14.3292 21.8249 13.2 22.0166 12 22.0166ZM19.25 18.0166C18.9 18.0166 18.6042 17.8958 18.3625 17.6541C18.1208 17.4124 18 17.1166 18 16.7666C18 16.4166 18.1208 16.1208 18.3625 15.8791C18.6042 15.6374 18.9 15.5166 19.25 15.5166C19.6 15.5166 19.8958 15.6374 20.1375 15.8791C20.3792 16.1208 20.5 16.4166 20.5 16.7666C20.5 17.1166 20.3792 17.4124 20.1375 17.6541C19.8958 17.8958 19.6 18.0166 19.25 18.0166ZM15.3 16.7166L11 12.4166V7.0166H13V11.6166L16.7 15.3166L15.3 16.7166Z" fill="#50E3C1"/>
</svg>
